<svg xmlns:x="http://ns.adobe.com/Extensibility/1.0/" xmlns:i="http://ns.adobe.com/AdobeIllustrator/10.0/" xmlns:graph="http://ns.adobe.com/Graphs/1.0/" xmlns="http://www.w3.org/2000/svg" xmlns:xlink="http://www.w3.org/1999/xlink" version="1.1" x="0px" y="0px" viewBox="0 0 64 80" enable-background="new 0 0 64 64" xml:space="preserve"><metadata><sfw xmlns="http://ns.adobe.com/SaveForWeb/1.0/"><slices/><sliceSourceBounds height="16384" width="16389" x="-8165" y="-8160" bottomLeftOrigin="true"/></sfw></metadata><g><g><path d="M21,18c-1.654,0-3,1.346-3,3s1.346,3,3,3s3-1.346,3-3S22.654,18,21,18z M21,22c-0.551,0-1-0.449-1-1s0.449-1,1-1    s1,0.449,1,1S21.551,22,21,22z"/><path d="M13,26c-1.654,0-3,1.346-3,3s1.346,3,3,3s3-1.346,3-3S14.654,26,13,26z M13,30c-0.551,0-1-0.449-1-1s0.449-1,1-1    s1,0.449,1,1S13.551,30,13,30z"/><path d="M29,10c-1.654,0-3,1.346-3,3s1.346,3,3,3s3-1.346,3-3S30.654,10,29,10z M29,14c-0.551,0-1-0.449-1-1s0.449-1,1-1    s1,0.449,1,1S29.551,14,29,14z"/><path d="M57.707,36.494L37.908,16.695c-0.391-0.391-1.023-0.391-1.414,0L36,17.189V7c0-0.552-0.447-1-1-1H7C6.448,6,6,6.448,6,7    v28c0,0.553,0.448,1,1,1h10.189l-0.494,0.494c-0.391,0.391-0.391,1.023,0,1.414l19.799,19.799C36.689,57.902,36.945,58,37.201,58    s0.512-0.098,0.707-0.293l19.799-19.799C58.098,37.518,58.098,36.885,57.707,36.494z M19,34H8V8h26v11    c0,0.056,0.023,0.104,0.032,0.158L19.158,34.032C19.104,34.023,19.056,34,19,34z M37.201,55.586L18.816,37.201l18.385-18.385    l18.385,18.385L37.201,55.586z"/><path d="M34.938,23.624c-0.566,0.566-0.879,1.32-0.879,2.122s0.312,1.555,0.878,2.121c0.566,0.567,1.32,0.879,2.122,0.879    s1.556-0.312,2.121-0.879c0.566-0.567,0.879-1.32,0.879-2.121c0-0.802-0.312-1.555-0.878-2.121    C38.05,22.492,36.072,22.491,34.938,23.624z M38.06,25.746c0,0.267-0.104,0.518-0.294,0.708c-0.377,0.377-1.036,0.378-1.413-0.001    c-0.189-0.189-0.293-0.439-0.293-0.707s0.104-0.518,0.293-0.707s0.44-0.293,0.707-0.293c0.268,0,0.518,0.104,0.707,0.293    C37.956,25.228,38.06,25.479,38.06,25.746z"/><path d="M33.523,29.279c-1.133-1.131-3.107-1.132-4.244,0.002c-1.168,1.171-1.167,3.074,0.001,4.242    c0.566,0.566,1.32,0.879,2.122,0.879c0.801,0,1.554-0.312,2.123-0.879C34.692,32.354,34.692,30.45,33.523,29.279z M32.111,32.109    c-0.379,0.378-1.038,0.378-1.416,0c-0.39-0.389-0.39-1.024-0.001-1.413c0.189-0.189,0.441-0.293,0.708-0.293    s0.519,0.104,0.707,0.292C32.5,31.084,32.5,31.72,32.111,32.109z"/><path d="M23.624,34.938c-0.566,0.567-0.878,1.32-0.878,2.121c0,0.802,0.312,1.555,0.878,2.119c0.566,0.568,1.32,0.881,2.122,0.881    c0.801,0,1.555-0.312,2.12-0.878c0.567-0.566,0.879-1.319,0.879-2.121c0-0.803-0.312-1.556-0.878-2.122    C26.734,33.805,24.757,33.804,23.624,34.938z M26.452,37.767c-0.377,0.377-1.034,0.379-1.414-0.002    c-0.188-0.188-0.292-0.438-0.292-0.705c0-0.268,0.104-0.519,0.293-0.707c0.189-0.189,0.44-0.293,0.707-0.293    c0.267,0,0.517,0.104,0.707,0.294c0.188,0.188,0.292,0.439,0.292,0.706C26.746,37.327,26.642,37.577,26.452,37.767z"/><path d="M48.372,40.059c0.802,0,1.556-0.312,2.121-0.879c1.17-1.17,1.17-3.073,0-4.244c-1.136-1.131-3.11-1.132-4.242,0.001    c-1.17,1.17-1.17,3.073,0,4.243C46.817,39.746,47.571,40.059,48.372,40.059z M47.665,36.351c0.188-0.188,0.439-0.293,0.707-0.293    c0.267,0,0.519,0.104,0.707,0.293c0.39,0.391,0.39,1.024-0.001,1.415c-0.376,0.378-1.033,0.378-1.413,0    C47.275,37.375,47.275,36.741,47.665,36.351z"/><path d="M40.594,44.836c0.566,0.566,1.32,0.879,2.122,0.879c0.801,0,1.554-0.312,2.122-0.878c1.167-1.17,1.167-3.073-0.002-4.245    c-1.133-1.132-3.109-1.13-4.242,0.002c-0.566,0.566-0.878,1.319-0.878,2.121S40.027,44.27,40.594,44.836z M42.008,42.008    c0.188-0.188,0.44-0.293,0.708-0.293c0.267,0,0.519,0.104,0.706,0.291c0.39,0.392,0.391,1.027,0.002,1.416    c-0.38,0.378-1.04,0.377-1.416,0c-0.188-0.188-0.292-0.439-0.292-0.707S41.819,42.196,42.008,42.008z"/><path d="M34.937,46.251c-0.566,0.566-0.879,1.32-0.878,2.122c0,0.802,0.312,1.555,0.878,2.118c0.566,0.568,1.32,0.881,2.122,0.881    c0.801,0,1.555-0.312,2.121-0.878c0.566-0.566,0.879-1.32,0.879-2.122c0-0.801-0.312-1.555-0.879-2.121    C38.048,45.118,36.07,45.118,34.937,46.251z M37.766,49.079c-0.379,0.377-1.034,0.379-1.415-0.002    c-0.188-0.188-0.292-0.438-0.292-0.705c0-0.268,0.104-0.519,0.292-0.707c0.189-0.188,0.44-0.293,0.707-0.293    c0.268,0,0.519,0.104,0.708,0.293c0.188,0.189,0.293,0.44,0.293,0.707C38.059,48.64,37.955,48.89,37.766,49.079z"/></g></g><text x="0" y="79" fill="#000000" font-size="5px" font-weight="bold" font-family="'Helvetica Neue', Helvetica, Arial-Unicode, Arial, Sans-serif">Created by Ralf Schmitzer</text><text x="0" y="84" fill="#000000" font-size="5px" font-weight="bold" font-family="'Helvetica Neue', Helvetica, Arial-Unicode, Arial, Sans-serif">from the Noun Project</text></svg>