<svg xmlns:dc="http://purl.org/dc/elements/1.1/" xmlns:cc="http://creativecommons.org/ns#" xmlns:rdf="http://www.w3.org/1999/02/22-rdf-syntax-ns#" xmlns:svg="http://www.w3.org/2000/svg" xmlns="http://www.w3.org/2000/svg" xmlns:sodipodi="http://sodipodi.sourceforge.net/DTD/sodipodi-0.dtd" xmlns:inkscape="http://www.inkscape.org/namespaces/inkscape" version="1.1" x="0px" y="0px" viewBox="15 962 70 70"><g><path d="m 50.002807,980.36223 c -0.60292,0.0315 -1.07677,0.24723 -1.375,0.53125 l -19,17.99996 c -0.83147,0.8283 -0.79807,2.06726 -0.0781,2.82816 0.71994,0.7608 2.06727,0.798 2.82812,0.078 l 15.625,-14.78125 0,35.34375 c 0,1.1045 0.8954,2 2,2 1.1046,0 2,-0.8955 2,-2 l 0,-35.34375 15.625,14.78125 c 0.76085,0.7199 2.0824,0.6574 2.82812,-0.078 0.77133,-0.7609 0.68273,-2.10816 -0.0781,-2.82816 l -19,-17.99996 c -0.48557,-0.47479 -0.89828,-0.50022 -1.37504,-0.53125 z" style="text-indent:0;text-transform:none;direction:ltr;block-progression:tb;baseline-shift:baseline;color:#000000;enable-background:accumulate;"/></g></svg>
