<?xml version="1.0" ?><svg id="svg2" version="1.1" viewBox="0 0 512 512" xmlns="http://www.w3.org/2000/svg" xmlns:cc="http://creativecommons.org/ns#" xmlns:dc="http://purl.org/dc/elements/1.1/" xmlns:inkscape="http://www.inkscape.org/namespaces/inkscape" xmlns:rdf="http://www.w3.org/1999/02/22-rdf-syntax-ns#" xmlns:sodipodi="http://sodipodi.sourceforge.net/DTD/sodipodi-0.dtd" xmlns:svg="http://www.w3.org/2000/svg"><defs id="defs4"/><g id="layer1" ><g id="g4305"><g id="g4345"><path d="M 115.78125 32.0625 C 108.78044 46.46089 102.03142 61.21258 95.53125 76.3125 C 89.030945 91.41274 82.420358 107.35646 75.71875 124.15625 C 69.017051 140.95628 62.185149 158.87484 55.1875 177.875 C 48.189801 196.87529 40.800282 217.56887 33 239.96875 L 81.59375 239.96875 C 83.797065 232.76661 86.23969 225.34889 88.9375 217.75 C 91.635194 210.15116 94.27484 202.56767 96.875 194.96875 L 177.875 194.96875 C 180.47494 202.56767 183.14584 210.15116 185.84375 217.75 C 188.54135 225.34889 190.98397 232.76661 193.1875 239.96875 L 243.28125 239.96875 C 235.48075 217.56887 228.09429 196.87529 221.09375 177.875 C 214.09284 158.87484 207.22968 140.95628 200.53125 124.15625 C 193.83248 107.35646 187.19455 91.41274 180.59375 76.3125 C 173.99265 61.21258 167.26793 46.46089 160.46875 32.0625 L 115.78125 32.0625 z M 137.09375 79.15625 C 138.29603 82.15934 139.87599 86.2687 141.875 91.46875 C 143.87378 96.66908 146.23658 102.66957 148.9375 109.46875 C 151.63818 116.26819 154.46874 123.76879 157.46875 131.96875 C 160.46849 140.16892 163.58287 148.77865 166.78125 157.78125 L 107.6875 157.78125 C 110.88566 148.77865 114.02433 140.16892 117.125 131.96875 C 120.22549 123.76879 123.08731 116.26819 125.6875 109.46875 C 128.28751 102.66957 130.59475 96.66908 132.59375 91.46875 C 134.59254 86.2687 136.09266 82.15934 137.09375 79.15625 z M 355.125 110.0625 C 353.16156 110.06276 351.20086 111.14884 349.8125 113 C 348.42413 114.85115 347.62519 117.44458 347.625 120.0625 L 347.625 306.0625 L 320.34375 278.78125 C 318.51036 276.94915 315.90412 275.89905 313.3125 275.9375 C 310.81985 275.9765 308.35712 277.01905 306.59375 278.78125 L 279.09375 306.28125 C 277.29345 308.08088 276.25 310.61072 276.25 313.15625 C 276.25 315.70177 277.29345 318.23161 279.09375 320.03125 L 370.75 411.65625 C 372.54965 413.45653 375.07948 414.5 377.625 414.5 C 380.17053 414.5 382.70037 413.45653 384.5 411.65625 L 476.125 320.03125 C 477.92528 318.23162 479 315.70178 479 313.15625 C 479 310.61073 477.92528 308.08089 476.125 306.28125 L 448.625 278.78125 C 446.82593 276.9856 444.32311 275.9375 441.78125 275.9375 C 439.23941 275.9375 436.70533 276.9856 434.90625 278.78125 L 407.625 306.0625 L 407.625 120.0625 C 407.6248 117.44458 406.82587 114.85115 405.4375 113 C 404.04913 111.14884 402.08844 110.06276 400.125 110.0625 L 355.125 110.0625 z M 61.1875 272.03125 L 61.1875 311.34375 L 154.46875 311.34375 C 146.66836 320.74333 138.22525 331.37954 129.125 343.28125 C 120.02459 355.18323 111.0794 367.48925 102.28125 380.1875 C 93.482985 392.88595 85.039878 405.46882 76.9375 417.96875 C 68.83506 430.46883 61.971907 441.82625 56.375 452.03125 L 56.375 479.9375 L 219.875 479.9375 L 219.875 440.625 L 113.96875 440.625 C 121.17083 428.6255 129.39262 416.04266 138.59375 402.84375 C 147.7947 389.64498 157.10047 376.83689 166.5 364.4375 C 175.89928 352.03833 184.9829 340.59499 193.78125 330.09375 C 202.57932 319.59281 210.191 311.03557 216.59375 304.4375 L 216.59375 272.03125 L 61.1875 272.03125 z " id="path2994" style="font-size:300px;font-style:normal;font-variant:normal;font-weight:bold;font-stretch:normal;text-align:start;line-height:125%;letter-spacing:0px;word-spacing:0px;writing-mode:lr-tb;text-anchor:start;fill:#222222;fill-opacity:1;stroke:none;font-family:Ubuntu;-inkscape-font-specification:Ubuntu Bold" /></g></g></g></svg>
