<svg xmlns:dc="http://purl.org/dc/elements/1.1/" xmlns:cc="http://creativecommons.org/ns#" xmlns:rdf="http://www.w3.org/1999/02/22-rdf-syntax-ns#" xmlns:svg="http://www.w3.org/2000/svg" xmlns="http://www.w3.org/2000/svg" xmlns:sodipodi="http://sodipodi.sourceforge.net/DTD/sodipodi-0.dtd" xmlns:inkscape="http://www.inkscape.org/namespaces/inkscape" version="1.1" x="0px" y="0px" viewBox="14 962 70 70"><g><path d="m 49.997152,1024.3621 c 0.6029,-0.032 1.0768,-0.2472 1.375,-0.5313 l 19.00003,-17.9999 c 0.83147,-0.8283 0.79807,-2.0673 0.0781,-2.8282 -0.71994,-0.7608 -2.06727,-0.798 -2.82812,-0.078 l -15.62501,14.7813 0,-35.34378 c 0,-1.1045 -0.8954,-2 -2,-2 -1.1046,0 -2,0.8955 -2,2 l 0,35.34378 -15.625,-14.7813 c -0.7608,-0.7199 -2.0824,-0.6574 -2.8281,0.078 -0.7713,0.7609 -0.6827,2.1082 0.078,2.8282 l 19,17.9999 c 0.4856,0.4748 0.8983,0.5003 1.375,0.5313 z" style="text-indent:0;text-transform:none;direction:ltr;block-progression:tb;baseline-shift:baseline;color:#000000;enable-background:accumulate;" /></g></svg>
