<svg xmlns="http://www.w3.org/2000/svg" xmlns:xlink="http://www.w3.org/1999/xlink" viewBox="0 0 25 25" version="1.1" x="0px" y="0px"><g stroke="none" stroke-width="1" fill="none" fill-rule="evenodd"><g transform="translate(-429.000000, -45.000000)" fill="#000000"><g transform="translate(429.000000, 45.000000)"><g transform="translate(16.000000, 17.000000) rotate(50.000000) translate(-16.000000, -17.000000) translate(11.000000, 12.000000)"><path d="M1.49754465,1 L8.50245535,1 C8.77737048,1 9,1.22258257 9,1.49754465 L9,8.50245535 C9,8.77737048 8.77741743,9 8.50245535,9 L1.49754465,9 C1.22262952,9 1,8.77741743 1,8.50245535 L1,1.49754465 C1,1.22262952 1.22258257,1 1.49754465,1 Z M-4.97379915e-14,8.50245535 C-4.97379915e-14,9.3297494 0.670391974,10 1.49754465,10 L8.50245535,10 C9.3297494,10 10,9.32960803 10,8.50245535 L10,1.49754465 C10,0.670250599 9.32960803,4.88498131e-14 8.50245535,4.88498131e-14 L1.49754465,4.88498131e-14 C0.670250599,4.88498131e-14 -4.97379915e-14,0.670391974 -4.97379915e-14,1.49754465 L-4.97379915e-14,8.50245535 Z"/><circle cx="3" cy="3" r="1"/><path d="M7,8 C7.55228475,8 8,7.55228475 8,7 C8,6.44771525 7.55228475,6 7,6 C6.44771525,6 6,6.44771525 6,7 C6,7.55228475 6.44771525,8 7,8 Z"/></g><g transform="translate(7.000000, 7.000000) rotate(20.000000) translate(-7.000000, -7.000000) translate(2.000000, 2.000000)"><path d="M1.49754465,1 L8.50245535,1 C8.77737048,1 9,1.22258257 9,1.49754465 L9,8.50245535 C9,8.77737048 8.77741743,9 8.50245535,9 L1.49754465,9 C1.22262952,9 1,8.77741743 1,8.50245535 L1,1.49754465 C1,1.22262952 1.22258257,1 1.49754465,1 Z M-3.6504133e-13,8.50245535 C-3.6504133e-13,9.3297494 0.670391974,10 1.49754465,10 L8.50245535,10 C9.3297494,10 10,9.32960803 10,8.50245535 L10,1.49754465 C10,0.670250599 9.32960803,3.1197267e-13 8.50245535,3.1197267e-13 L1.49754465,3.1197267e-13 C0.670250599,3.1197267e-13 -3.6504133e-13,0.670391974 -3.6504133e-13,1.49754465 L-3.6504133e-13,8.50245535 Z"/><circle cx="3" cy="3" r="1"/><circle cx="3" cy="7" r="1"/><circle cx="7" cy="7" r="1"/><circle cx="7" cy="3" r="1"/></g><path d="M16.3800661,6.00753943 C16.6075729,6.35180099 16.7749382,6.72359712 16.8900717,7.09537202 C16.95826,7.31555706 16.9931195,7.48206835 17.0044361,7.56645611 C17.0411388,7.8401485 17.2927637,8.0322666 17.5664561,7.99556391 C17.8401485,7.95886121 18.0322666,7.70723627 17.9955639,7.43354389 C17.9271346,6.92326553 17.7007317,6.19219345 17.2143477,5.45620081 C16.8384385,4.88737767 16.3536755,4.41201381 15.7481099,4.06590152 C15.5083639,3.92887422 15.2029288,4.01214416 15.0659015,4.25189013 C14.9288742,4.4916361 15.0121442,4.79707118 15.2518901,4.93409848 C15.7142198,5.19834395 16.0866666,5.5635694 16.3800661,6.00753943 Z"/><path d="M6.15861532,17.2135836 C6.58868774,17.6154815 7.01952744,17.8556667 7.32691735,17.9690868 C7.58598682,18.0646777 7.87349586,17.9321521 7.96908677,17.6730827 C8.06467768,17.4140132 7.93215212,17.1265041 7.67308265,17.0309132 C7.48047256,16.9598444 7.16131226,16.7819184 6.84138468,16.4829496 C6.31268227,15.988883 6,15.3430343 6,14.5 C6,14.2238576 5.77614237,14 5.5,14 C5.22385763,14 5,14.2238576 5,14.5 C5,15.6362543 5.43731773,16.5395389 6.15861532,17.2135836 Z"/><path d="M18.904079,6.00719299 C19.0897706,6.57020376 19.1283021,7.18006599 19.0808951,7.71540439 C19.0747571,7.7847176 19.0689639,7.83134297 19.0658397,7.85141908 C19.0233792,8.1242775 19.2101536,8.37989399 19.4830121,8.42235449 C19.7558705,8.46481499 20.011487,8.27804058 20.0539475,8.00518216 C20.0603496,7.96404104 20.0688457,7.89566218 20.076997,7.8036144 C20.1353741,7.14439765 20.0887505,6.40645773 19.8537589,5.69397068 C19.6476141,5.06894661 19.3111721,4.53140951 18.8229755,4.11831053 C18.6121742,3.93993611 18.2966849,3.96622327 18.1183105,4.17702454 C17.9399361,4.38782581 17.9662233,4.70331505 18.1770245,4.88168947 C18.5143404,5.1671172 18.7525118,5.5476462 18.904079,6.00719299 Z"/></g></g></g></svg>
